<svg width="973" height="962" viewBox="0 0 973 962" fill="none" xmlns="http://www.w3.org/2000/svg">
<rect y="174" width="80" height="593" rx="8" fill="#383838"/>
<path d="M973 481C973 746.658 757.632 962 492 962C226.34 962 11 746.658 11 481C11 215.369 226.34 0 492 0C757.634 0 973 215.369 973 481Z" fill="#1F1F1F"/>
<path d="M892.825 481.001C892.825 702.389 713.361 881.854 492.001 881.854C270.613 881.854 91.1475 702.389 91.1475 481.001C91.1475 259.641 270.613 80.1768 492.001 80.1768C713.361 80.1768 892.825 259.641 892.825 481.001Z" fill="#383838"/>
<path d="M492.002 20.0508C480.934 20.0508 471.951 29.034 471.951 40.1033C471.951 51.1708 480.934 60.124 492.002 60.124C503.071 60.124 512.024 51.1689 512.024 40.1033C512.024 29.034 503.071 20.0508 492.002 20.0508Z" fill="#424242"/>
<path d="M492.002 901.874C480.934 901.874 471.951 910.857 471.951 921.927C471.951 932.994 480.934 941.977 492.002 941.977C503.071 941.977 512.024 932.994 512.024 921.927C512.024 910.859 503.071 901.874 492.002 901.874Z" fill="#424242"/>
<path d="M281.563 116.52C291.134 110.973 294.423 98.7286 288.901 89.129C283.354 79.5594 271.112 76.2705 261.512 81.8183C251.912 87.3398 248.623 99.6101 254.173 109.182C259.721 118.781 271.965 122.038 281.563 116.52Z" fill="#424242"/>
<path d="M702.439 845.507C692.842 851.027 689.553 863.299 695.101 872.87C700.62 882.468 712.892 885.729 722.464 880.209C732.062 874.688 735.35 862.417 729.801 852.846C724.283 843.246 712.009 839.959 702.439 845.507Z" fill="#424242"/>
<path d="M100.13 277.902C109.701 283.45 121.972 280.163 127.493 270.563C133.041 260.992 129.752 248.722 120.154 243.2C110.583 237.652 98.3106 240.941 92.791 250.539C87.2733 260.11 90.5602 272.383 100.13 277.902Z" fill="#424242"/>
<path d="M883.873 684.097C874.272 678.577 862.03 681.864 856.482 691.436C850.962 701.035 854.221 713.279 863.821 718.827C873.392 724.347 885.664 721.06 891.21 711.488C896.73 701.889 893.441 689.647 883.873 684.097Z" fill="#424242"/>
<path d="M51.0741 460.979C40.0067 460.979 31.0234 469.934 31.0234 481.001C31.0234 492.068 40.0067 501.052 51.0741 501.052C62.1434 501.052 71.1267 492.068 71.1267 481.001C71.1267 469.932 62.1415 460.979 51.0741 460.979Z" fill="#424242"/>
<path d="M932.901 460.979C921.832 460.979 912.879 469.934 912.879 481.001C912.879 492.068 921.834 501.052 932.901 501.052C943.969 501.052 952.952 492.068 952.952 481.001C952.95 469.932 943.967 460.979 932.901 460.979Z" fill="#424242"/>
<path d="M100.131 684.097C90.5596 689.644 87.2726 701.888 92.7922 711.488C98.3119 721.088 110.584 724.347 120.155 718.827C129.753 713.279 133.042 701.035 127.494 691.435C121.973 681.866 109.703 678.579 100.131 684.097Z" fill="#424242"/>
<path d="M863.821 243.2C854.249 248.722 850.962 260.992 856.482 270.563C862.03 280.163 874.272 283.45 883.873 277.902C893.443 272.383 896.732 260.11 891.21 250.539C885.664 240.941 873.42 237.652 863.821 243.2Z" fill="#424242"/>
<path d="M281.563 845.507C271.965 839.959 259.721 843.246 254.173 852.846C248.652 862.418 251.912 874.688 261.512 880.209C271.112 885.757 283.354 882.468 288.902 872.87C294.423 863.299 291.134 851.027 281.563 845.507Z" fill="#424242"/>
<path d="M722.463 81.7889C712.891 76.2693 700.619 79.5581 695.1 89.1277C689.552 98.7274 692.841 110.971 702.438 116.519C712.01 122.067 724.282 118.78 729.8 109.18C735.349 99.6107 732.061 87.3386 722.463 81.7889Z" fill="#424242"/>
</svg>
