<svg width="973" height="962" viewBox="0 0 973 962" fill="none" xmlns="http://www.w3.org/2000/svg">
<rect x="472.491" y="180" width="39" height="601" fill="#C4C4C4"/>
<rect x="742.481" y="313.362" width="39" height="601" transform="rotate(60 742.481 313.362)" fill="#C4C4C4"/>
<rect x="761.981" y="613.862" width="39" height="601" transform="rotate(120 761.981 613.862)" fill="#C4C4C4"/>
<path d="M654.886 481C654.886 569.574 583.109 641.351 494.562 641.351C406.019 641.351 334.209 569.574 334.209 481C334.209 392.457 406.019 320.676 494.562 320.676C583.107 320.676 654.886 392.457 654.886 481Z" fill="#272727"/>
<path d="M559.562 480.454C559.562 516.634 530.287 546 494.108 546C457.928 546 428.562 516.634 428.562 480.454C428.562 444.268 457.928 415 494.108 415C530.293 415 559.562 444.268 559.562 480.454Z" fill="#C4C4C4"/>
</svg>
